  <svg width="116" height="116" viewBox="0 0 116 116" fill="none"
    xmlns="http://www.w3.org/2000/svg">
    <g clip-path="url(#clip0_3_5)">
      <rect width="116" height="116" fill="transparent"/>
      <path d="M24.5108 12.3888C24.766 11.6 25.1256 10.8344 25.4156 10.0572C21.6572 12.6208 18.2584 15.6484 15.196 19.0008C15.2192 19.6388 15.196 20.3232 15.2308 20.9496C15.7876 32.132 18.9428 40.9132 24.8588 48.4532C20.8916 35.8324 20.7408 23.7568 24.5108 12.3888Z" fill="#3E8DC8"/>
      <path d="M32.0044 22.0168C34.22 14.2332 38.0364 7.9692 41.6092 3.77C42.1544 3.1204 42.6764 2.5172 43.21 1.9836C37.8624 3.3988 32.828 5.5448 28.2112 8.3288C27.9212 9.0016 27.6892 9.686 27.4224 10.3588C22.2836 23.5364 22.5272 37.7116 28.3736 52.6756C28.3968 52.7452 28.3504 52.8032 28.362 52.8728C28.3852 53.0004 28.3852 53.1048 28.362 53.2324C28.3272 53.36 28.2924 53.4528 28.2228 53.5688C28.1764 53.6268 28.188 53.6964 28.1416 53.7544C28.0836 53.8008 28.014 53.7892 27.956 53.8356C27.898 53.8704 27.8748 53.9516 27.8168 53.9748C27.7008 54.0212 27.5732 54.0444 27.4572 54.0444C27.2136 54.0444 27.0048 53.9284 26.8192 53.766C26.796 53.7428 26.7612 53.7544 26.738 53.7312C18.6876 45.4024 14.3608 35.8092 13.3516 23.2232C13.2936 22.5504 13.282 21.8428 13.2472 21.1468C11.716 23.0028 10.3472 24.9864 9.05961 27.028C9.12921 27.7704 9.12921 28.594 9.21041 29.3248C11.5652 49.5204 21.1236 61.0856 29.2668 67.3612C36.0296 72.5812 42.8272 75.052 46.5624 76.1192C28.188 54.1024 28.42 34.6376 32.0044 22.0168Z" fill="#3E8DC8"/>
      <path d="M8.3984 65.366C5.1736 61.5148 2.9348 57.3504 1.5776 52.9308C1.2296 51.7708 0.928 50.5876 0.7076 49.3812C0.29 52.2 0 55.0652 0 58C0 61.9904 0.4292 65.888 1.1948 69.658C1.798 70.3888 2.4012 71.108 3.0392 71.7808C17.226 86.9768 39.1848 89.3432 39.4864 89.3664C40.0316 89.4128 40.426 89.9 40.3796 90.4452C40.3332 90.9556 39.904 91.3384 39.3936 91.3384C39.3588 91.3384 39.3356 91.3384 39.3008 91.3384C39.0108 91.3152 18.8384 89.1808 4.1876 75.7596C3.4684 75.0984 2.8072 74.3676 2.1228 73.6484C3.016 76.8964 4.1876 80.04 5.6144 83.0328C6.5656 83.9492 7.5284 84.8192 8.4912 85.6312C19.778 95.178 31.4592 98.0896 40.5652 98.4724C54.0676 99.0292 65.5864 94.3776 69.8668 91.8604C57.7216 90.886 23.8148 83.7868 8.3984 65.366Z" fill="#3E8DC8"/>
      <path d="M92.684 80.2488C89.958 85.5036 81.9192 98.368 65.8068 104.609C54.1024 109.144 40.6928 109.144 25.7868 104.736C24.4876 104.354 23.1652 103.878 21.8428 103.426C28.9768 109.086 37.5144 113.088 46.98 114.91C48.894 114.724 50.7152 114.515 52.3856 114.237C70.2148 111.337 74.8664 103.866 74.936 103.762C75.2144 103.286 75.806 103.136 76.2932 103.402C76.7688 103.681 76.9312 104.272 76.6644 104.748C76.444 105.131 72.9756 110.85 60.726 114.457C58.9164 114.979 56.8748 115.455 54.6708 115.872C55.7728 115.93 56.8864 116 58.0116 116C61.1088 116 64.1944 115.756 67.2104 115.269C71.804 114.538 76.1772 113.239 80.3068 111.534C80.9332 110.826 81.5016 110.084 82.0816 109.353C85.3064 105.282 87.8932 100.839 89.668 96.7092C92.4056 90.2944 93.4728 84.274 92.684 80.2488Z" fill="#3E8DC8"/>
      <path d="M97.672 57.1996C97.3588 56.2484 96.9412 55.3436 96.57 54.4272C95.294 51.2488 93.8092 48.198 91.8952 45.414C80.7012 29.0464 61.2132 23.3856 51.1212 21.4948C47.2468 20.764 44.7064 20.5784 44.6252 20.5668C44.4396 20.5552 44.312 20.4392 44.1728 20.3464H44.1612C43.8828 20.1608 43.674 19.894 43.6856 19.5344C43.9756 14.0244 47.444 8.7928 53.186 5.1736C55.8888 3.4684 58.8932 2.2968 62.0368 1.5428C63.626 1.1716 65.2268 0.8932 66.874 0.7656C63.9856 0.3016 61.0276 0 58 0C54.3112 0 50.7036 0.3828 47.212 1.044C46.5856 1.4964 45.878 2.1112 45.1124 2.8652C41.47 6.4148 36.5864 13.1312 33.9068 22.562C30.3456 35.148 30.2412 54.8332 50.0656 77.14C50.344 77.4532 50.402 77.9056 50.1932 78.2768C50.0192 78.6016 49.6828 78.7988 49.3232 78.7988C49.2768 78.7988 49.2188 78.7988 49.1724 78.7872C48.7432 78.7176 38.5468 77.0008 28.1416 68.9968C19.9984 62.7444 10.5676 51.4344 7.6328 32.1552C7.5168 31.4128 7.3544 30.7284 7.2616 29.9744C5.046 33.9648 3.3408 38.2568 2.1112 42.746C2.0996 44.3236 2.1692 45.8664 2.3664 47.3744C3.1784 53.4528 5.7072 59.044 9.9296 64.1016C27.3296 84.8888 67.396 90.0508 72.4768 90.0508C72.7784 90.0508 73.0684 90.19 73.2656 90.4336C73.4512 90.6656 73.5208 90.9904 73.4512 91.2804C72.964 93.2408 63.2896 98.252 51.3416 99.9456C48.3836 100.363 45.53 100.56 42.7924 100.56C30.0324 100.56 19.6736 96.28 11.4144 90.364C10.3356 89.5984 9.2916 88.8096 8.294 87.986C10.9272 92.3592 14.1172 96.3612 17.7944 99.8876C18.8964 100.328 19.9636 100.653 21.0424 101.036C37.6536 107.01 52.4552 107.66 65.0992 102.753C84.4132 95.2708 91.872 77.3836 91.9416 77.2096C92.0924 76.85 92.4288 76.6064 92.8232 76.5832C93.2176 76.5716 93.5772 76.7804 93.7512 77.14C95.9204 81.5132 95.0852 89.1228 91.4892 97.498C90.1204 100.7 88.2412 104.087 86.0024 107.358C85.4804 108.135 84.9468 108.901 84.3784 109.666C88.8676 107.393 92.9972 104.562 96.6976 101.268C96.918 100.479 97.1732 99.6556 97.3704 98.8784C101.43 82.7544 101.535 68.8112 97.672 57.1996ZM76.328 84.216C66.932 86.652 59.9488 80.5852 49.0216 66.6188C38.7556 53.4992 41.064 35.9368 41.3772 26.0536C48.0008 26.7264 57.3968 28.9072 62.8488 32.3756C70.76 37.41 76.2584 43.7668 80.1908 52.3972C83.7404 60.2156 87.1392 66.9552 91.466 69.832C87.7772 77.0472 82.0236 82.7544 76.328 84.216Z" fill="#3E8DC8"/>
      <path d="M112.729 72.8016C112.822 74.066 112.833 75.4232 112.891 76.7224C114.875 70.8296 116 64.554 116 58C116 43.8248 110.873 30.8444 102.393 20.7524C100.734 19.4416 99.0176 18.2584 97.2544 17.226C91.6864 13.9432 85.6312 11.9248 79.054 11.368C74.3328 10.962 70.0292 11.3796 66.6304 12.006C72.3492 12.3424 80.2024 13.9084 87.87 18.966C88.4848 19.372 89.0764 19.836 89.6796 20.2768C90.248 20.6944 90.828 21.0888 91.3964 21.5412C94.2152 23.8496 96.686 26.622 98.9712 29.6612C99.3656 30.1832 99.8064 30.6704 100.189 31.2272C107.196 41.3888 111.406 55.274 112.729 72.8016Z" fill="#3E8DC8"/>
      <path d="M82.824 63.2432C81.6176 60.8188 80.1212 58.2204 77.7548 58.2204C75.8524 58.2204 74.8084 59.45 74.472 59.9488C74.124 59.4616 73.08 58.2204 71.1776 58.2204C68.8228 58.2204 67.3844 60.7028 66.1084 63.2432C64.9368 65.5864 63.3708 65.83 63.3592 65.83L63.046 65.8764L63.2664 66.0968C63.2896 66.1084 64.9484 67.7324 66.1084 69.5536L66.3636 69.9596C68.0108 72.5464 68.5096 73.3236 74.4604 73.3236H74.472C80.4112 73.3236 80.91 72.5464 82.5456 69.9712L82.8124 69.5536C83.984 67.7324 85.6544 66.1084 85.666 66.0968L85.8864 65.8764L85.5732 65.83C85.5848 65.83 84.0072 65.5864 82.824 63.2432ZM71.1776 58.522C73.3236 58.522 74.3212 60.2736 74.3328 60.2968L74.3908 60.378L74.3328 60.3084C74.3212 60.2736 73.3236 58.522 71.1776 58.522ZM74.1704 63.3128C74.1008 63.278 73.9152 63.1852 73.66 63.104C73.9036 63.1852 74.1008 63.2664 74.1704 63.3128ZM71.978 63.1504C73.3236 63.1504 74.0312 63.5796 74.0428 63.5912L74.3676 63.6144L74.4024 63.5912C74.414 63.5912 75.0868 63.162 76.4324 63.162C77.4532 63.162 79.3788 64.4148 80.3184 65.1456C80.1444 65.1456 79.9124 65.1224 79.5528 65.0528L79.4832 65.0412L79.4136 65.076C79.0888 65.2268 78.7988 65.3428 78.068 65.0992L77.7664 65.0064V65.2268C77.5112 65.3312 76.5716 65.4588 75.9916 65.4588C75.4116 65.4588 74.5068 65.2732 74.4952 65.2732H74.4488H74.4024C74.3908 65.2732 73.428 65.4588 72.848 65.4588C72.268 65.4588 71.3284 65.3312 71.0848 65.2268V65.0064L70.7832 65.0992C70.0524 65.3312 69.7624 65.2384 69.426 65.076L69.3564 65.0412L69.2868 65.0528C68.8344 65.134 68.5096 65.1108 68.2544 65.0528C69.2288 64.2988 71.0036 63.1504 71.978 63.1504ZM67.8368 65.366C68.1964 65.5284 68.6952 65.598 69.2868 65.4936C69.6348 65.6792 70.0176 65.7836 70.7948 65.54C71.3168 65.8764 72.8248 65.888 72.848 65.888C73.4048 65.888 74.24 65.7372 74.4488 65.7024C74.646 65.7372 75.4348 65.888 75.9916 65.888C76.0148 65.888 77.5344 65.8764 78.0564 65.54C78.7988 65.7604 79.1932 65.6792 79.5528 65.4936C80.0864 65.6096 80.4344 65.6096 80.7244 65.4704C80.7592 65.4936 80.8636 65.5864 80.8752 65.598C80.8868 65.656 80.8056 65.8764 80.5388 66.1896C80.1212 66.6768 78.4392 68.2428 74.2864 68.2428H74.124C69.9596 68.2428 68.2892 66.6652 67.8832 66.1896C67.6048 65.8764 67.5352 65.6676 67.5352 65.6212C67.5584 65.5864 67.7208 65.4472 67.8368 65.366ZM70.992 69.6464C70.8412 69.6812 70.876 70.2148 70.6208 70.1336C70.354 70.0524 70.6208 69.4144 70.8064 69.4492L71.1544 69.6C71.1428 69.6 71.1428 69.6 70.992 69.6464ZM71.978 69.8668C71.8272 70.1684 71.7924 70.3192 71.514 70.2844C71.2588 70.2496 71.7344 69.4956 71.8968 69.5652C71.8968 69.5652 72.1288 69.5652 71.978 69.8668ZM73.4628 70.0176C73.1844 70.1684 72.8944 70.8064 72.8132 70.47C72.732 70.1336 73.2308 69.6464 73.4976 69.6812C73.4976 69.6812 73.718 69.8668 73.4628 70.0176ZM74.2748 68.5444H74.124C70.412 68.5444 68.4168 67.3148 67.6164 66.3636C68.4052 67.3032 70.412 68.5328 74.1124 68.5328L74.2748 68.5444C78.4972 68.5444 80.5272 66.9436 81.0492 65.9924C81.1768 65.7488 81.2 65.5864 81.1304 65.4588C80.9564 65.192 79.228 63.858 77.7548 63.2084C79.228 63.858 80.968 65.192 81.1304 65.4588C81.2 65.5748 81.1768 65.7488 81.0492 65.9924C80.5272 66.9436 78.5088 68.5444 74.2748 68.5444ZM75.5856 70.8992C75.5856 70.8992 75.516 70.7484 75.3536 70.2844C75.2028 69.832 75.6552 69.9016 75.806 70.0176C75.9568 70.1336 75.8408 70.934 75.5856 70.8992ZM78.0448 70.6672C78.0796 70.412 77.5576 69.8784 77.256 69.6812C77.256 69.6812 77.4068 69.5304 77.72 69.484C78.0216 69.4492 78.2884 69.3332 78.474 69.9016C78.648 70.47 78.01 70.934 78.0448 70.6672ZM82.5572 69.3912L82.2904 69.8088C81.1768 71.5488 80.6316 72.4188 78.5088 72.79C80.62 72.4188 81.1768 71.5488 82.2788 69.8088L82.5572 69.3912C83.52 67.9064 84.796 66.5608 85.2716 66.062C84.738 65.888 83.52 65.308 82.5572 63.3708C81.3856 61.0276 79.9588 58.5104 77.7664 58.5104C79.9588 58.5104 81.3972 61.016 82.5572 63.3708C83.5316 65.2964 84.738 65.888 85.2832 66.0504C84.796 66.5492 83.52 67.8948 82.5572 69.3912Z" fill="#3E8DC8"/>
      <path d="M65.9344 39.6604C66.3868 39.5096 66.6652 39.4052 66.758 39.1616C66.8508 38.918 66.7348 38.6164 66.4912 38.1872L66.352 37.9204C65.7836 36.8648 65.192 35.786 63.8232 34.742C62.2572 33.5472 61.2248 33.1528 60.32 33.3036C60.2504 33.3152 60.204 33.3616 60.1924 33.4312C60.1692 33.4892 60.204 33.5588 60.262 33.5936C61.016 34.0692 63.0344 35.3916 63.3592 35.8208C63.4172 35.902 63.4752 36.0064 63.4636 36.076C63.4056 36.25 62.9184 36.3892 62.3964 36.5516L62.3152 36.5748C61.9092 36.7024 61.0276 36.7836 59.9488 36.7836C58.2784 36.7836 56.434 36.598 54.926 36.2732C54.1256 36.0528 53.7312 35.9136 53.4876 35.8208C53.302 35.7628 53.2092 35.7164 53.1048 35.7164C53.0352 35.7164 52.9656 35.7396 52.896 35.7512C52.664 35.8324 52.5132 36.1456 52.3392 36.4704C52.2348 36.6792 52.1304 36.888 52.0144 37.0156C51.8752 37.178 51.7592 37.3404 51.794 37.5376C51.8404 37.7696 52.0724 37.9668 52.664 38.3264C53.9168 39.0456 56.028 39.9852 58.9976 40.368C59.8676 40.484 60.6912 40.542 61.4336 40.542C62.93 40.542 64.1828 40.3216 65.3428 39.8576C65.5748 39.7996 65.772 39.73 65.9344 39.6604ZM59.9372 37.12C58.2436 37.12 56.3876 36.9344 54.8332 36.598C54.0096 36.3776 53.6036 36.2268 53.36 36.1456C53.2092 36.0992 53.1396 36.0644 53.0932 36.0644C53.1396 36.0644 53.2208 36.0992 53.3716 36.1456C53.6152 36.2384 54.0212 36.3776 54.8448 36.598C56.3876 36.9344 58.2436 37.12 59.9372 37.12ZM63.626 35.0088C64.9484 36.0064 65.5168 37.062 66.0736 38.0828L66.2128 38.3496C66.352 38.6048 66.5144 38.918 66.4564 39.0456C66.5028 38.918 66.352 38.6048 66.2128 38.3496L66.0736 38.0828C65.5168 37.062 64.9484 36.0064 63.626 35.0088ZM61.4452 40.2404C62.9068 40.2404 64.1132 40.0316 65.2268 39.5792C64.1016 40.0316 62.9068 40.2404 61.4452 40.2404Z" fill="#3E8DC8"/>
      <path d="M74.0428 55.1464C76.734 55.1464 77.4532 52.9076 77.4532 51.7244H76.0844C76.0844 51.9332 76.0264 53.7776 74.0428 53.7776C71.9896 53.7776 71.6764 52.1536 71.6532 51.968L70.9804 52.0724L70.3076 52.1652C70.4352 53.1976 71.4096 55.1464 74.0428 55.1464Z" fill="#3E8DC8"/>
      <path d="M70.0524 2.6564C64.3452 2.552 58.87 3.9324 54.2532 6.844C49.4044 9.9064 46.3536 14.1752 45.7736 18.676C47.2236 18.8268 50.1468 19.2096 53.9284 20.0332C55.4132 20.358 57.0372 20.764 58.7424 21.2396C69.5884 24.2904 84.274 30.7284 93.5192 44.2656C94.8184 46.1564 95.9552 48.14 96.9644 50.2048C97.3936 51.0632 97.6952 51.9912 98.078 52.8844C103.112 64.786 103.785 79.2396 100.015 96.0712C99.8296 96.918 99.6904 97.73 99.4816 98.5884C104.354 93.612 108.286 87.7772 111.093 81.3276C111.07 80.272 111 79.2628 110.954 78.2304C110.2 59.7864 106.5 45.1008 99.8644 34.4056C99.47 33.7676 99.0872 33.118 98.6812 32.5148C96.1872 28.8724 93.3568 25.6824 90.132 23.0492C88.8792 22.0284 87.6148 21.1584 86.3388 20.3464C85.6196 19.8824 84.912 19.4416 84.1928 19.0472C71.3168 11.9596 58.5336 14.268 58.3944 14.2912C57.8956 14.384 57.4084 14.0824 57.2576 13.6184C57.1068 13.1312 57.3388 12.6208 57.8028 12.412C58.174 12.238 67.1176 8.3288 79.1236 9.3496C82.7428 9.6512 86.884 10.5212 91.234 12.1684C92.8464 12.7832 94.482 13.5256 96.1524 14.3956C91.0832 9.976 85.26 6.4264 78.8684 3.944C75.922 3.0972 72.9756 2.6912 70.0524 2.6564Z" fill="#3E8DC8"/>
    </g>
    <defs>
      <clipPath id="clip0_3_5">
        <rect width="116" height="116" fill="transparent"/>
      </clipPath>
    </defs>
  </svg>
