<svg width="890.5000000000001" height="214.15074893500068" viewBox="0 0 370.0169491525424 88.98305084745762"
     class="looka-1j8o68f">
  <defs id="SvgjsDefs1415"></defs>
  <g id="SvgjsG1416" featurekey="JQyOZB-0" transform="matrix(0.08898305084745763,0,0,0.08898305084745763,0,0)"
     fill="#3e8dc8">
    <g xmlns="http://www.w3.org/2000/svg">
      <path
        d="M211.3,106.8L211.3,106.8L211.3,106.8c2.2-6.8,5.3-13.4,7.8-20.1c-32.4,22.1-61.7,48.2-88.1,77.1   c0.2,5.5,0,11.4,0.3,16.8h0l0,0c4.8,96.4,32,172.1,83,237.1C180.1,308.9,178.8,204.8,211.3,106.8z"
        fill="#3e8dc8"></path>
      <path
        d="M275.9,189.8c19.1-67.1,52-121.1,82.8-157.3l0,0l0,0c4.7-5.6,9.2-10.8,13.8-15.4   C326.4,29.3,283,47.8,243.2,71.8c-2.5,5.8-4.5,11.7-6.8,17.5h0c-44.3,113.6-42.2,235.8,8.2,364.8c0.2,0.6-0.2,1.1-0.1,1.7   c0.2,1.1,0.2,2,0,3.1c-0.3,1.1-0.6,1.9-1.2,2.9c-0.4,0.5-0.3,1.1-0.7,1.6c-0.5,0.4-1.1,0.3-1.6,0.7c-0.5,0.3-0.7,1-1.2,1.2   c-1,0.4-2.1,0.6-3.1,0.6c-2.1,0-3.9-1-5.5-2.4c-0.2-0.2-0.5-0.1-0.7-0.3c-69.4-71.8-106.7-154.5-115.4-263l0,0.1l0-0.1   c-0.5-5.8-0.6-11.9-0.9-17.9c-13.2,16-25,33.1-36.1,50.7c0.6,6.4,0.6,13.5,1.3,19.8l0,0l0,0c20.3,174.1,102.7,273.8,172.9,327.9   c58.3,45,116.9,66.3,149.1,75.5C243,466.4,245,298.6,275.9,189.8z"
        fill="#3e8dc8"></path>
      <path
        d="M72.4,563.5c-27.8-33.2-47.1-69.1-58.8-107.2c-3-10-5.6-20.2-7.5-30.6C2.5,450,0,474.7,0,500   c0,34.4,3.7,68,10.3,100.5c5.2,6.3,10.4,12.5,15.9,18.3c122.3,131,311.6,151.4,314.2,151.6c4.7,0.4,8.1,4.6,7.7,9.3   c-0.4,4.4-4.1,7.7-8.5,7.7c-0.3,0-0.5,0-0.8,0c-2.5-0.2-176.4-18.6-302.7-134.3l0,0l0,0c-6.2-5.7-11.9-12-17.8-18.2   c7.7,28,17.8,55.1,30.1,80.9c8.2,7.9,16.5,15.4,24.8,22.4l-0.1-0.2l0.1,0.2c97.3,82.3,198,107.4,276.5,110.7   c116.4,4.8,215.7-35.3,252.6-57C497.6,783.5,205.3,722.3,72.4,563.5z"
        fill="#3e8dc8"></path>
      <path
        d="M799,691.8c-23.5,45.3-92.8,156.2-231.7,210c-100.9,39.1-216.5,39.1-345,1.1c-11.2-3.3-22.6-7.4-34-11.3   c61.5,48.8,135.1,83.3,216.7,99c16.5-1.6,32.2-3.4,46.6-5.8c-9.9-1-20-0.8-29.6-2.3c9.6,1.5,19.7,1.3,29.6,2.3   c153.7-25,193.8-89.4,194.4-90.3c2.4-4.1,7.5-5.4,11.7-3.1c4.1,2.4,5.5,7.5,3.2,11.6c-1.9,3.3-31.8,52.6-137.4,83.7   c-15.6,4.5-33.2,8.6-52.2,12.2c9.5,0.5,19.1,1.1,28.8,1.1c26.7,0,53.3-2.1,79.3-6.3c39.6-6.3,77.3-17.5,112.9-32.2   c5.4-6.1,10.3-12.5,15.3-18.8h0c27.8-35.1,50.1-73.4,65.4-109C796.6,778.4,805.8,726.5,799,691.8z"
        fill="#3e8dc8"></path>
      <path
        d="M842,493.1L842,493.1c-2.7-8.2-6.3-16-9.5-23.9v0c-11-27.4-23.8-53.7-40.3-77.7   c-96.5-141.1-264.5-189.9-351.5-206.2l0,0c-33.4-6.3-55.3-7.9-56-8c-1.6-0.1-2.7-1.1-3.9-1.9h-0.1c-2.4-1.6-4.2-3.9-4.1-7   c2.5-47.5,32.4-92.6,81.9-123.8c23.3-14.7,49.2-24.8,76.3-31.3v0c13.7-3.2,27.5-5.6,41.7-6.7C551.6,2.6,526.1,0,500,0   c-31.8,0-62.9,3.3-93,9c-5.4,3.9-11.5,9.2-18.1,15.7c-31.4,30.6-73.5,88.5-96.6,169.8C261.6,303,260.7,472.7,431.6,665   c2.4,2.7,2.9,6.6,1.1,9.8c-1.5,2.8-4.4,4.5-7.5,4.5c-0.4,0-0.9,0-1.3-0.1c-3.7-0.6-91.6-15.4-181.3-84.4   C172.4,540.9,91.1,443.4,65.8,277.2v0v0c-1-6.4-2.4-12.3-3.2-18.8c-19.1,34.4-33.8,71.4-44.4,110.1c-0.1,13.6,0.5,26.9,2.2,39.9   l0,0l0,0c7,52.4,28.8,100.6,65.2,144.2c150,179.2,495.4,223.7,539.2,223.7c2.6,0,5.1,1.2,6.8,3.3c1.6,2,2.2,4.8,1.6,7.3   c-4.2,16.9-87.6,60.1-190.6,74.7c-25.5,3.6-50.1,5.3-73.7,5.3c-110,0-199.3-36.9-270.5-87.9l0,0c-9.3-6.6-18.3-13.4-26.9-20.5   c22.7,37.7,50.2,72.2,81.9,102.6c9.5,3.8,18.7,6.6,28,9.9l0,0c143.2,51.5,270.8,57.1,379.8,14.8   c166.5-64.5,230.8-218.7,231.4-220.2c1.3-3.1,4.2-5.2,7.6-5.4c3.4-0.1,6.5,1.7,8,4.8c18.7,37.7,11.5,103.3-19.5,175.5   c-11.8,27.6-28,56.8-47.3,85l0,0c-4.5,6.7-9.1,13.3-14,19.9c38.7-19.6,74.3-44,106.2-72.4c1.9-6.8,4.1-13.9,5.8-20.6l0,0   C874.4,713.4,875.3,593.2,842,493.1z M658,726C577,747,516.8,694.7,422.6,574.3c-88.5-113.1-68.6-264.5-65.9-349.7l0,0   c57.1,5.8,138.1,24.6,185.1,54.5c68.2,43.4,115.6,98.2,149.5,172.6c30.6,67.4,59.9,125.5,97.2,150.3h0   C756.7,664.2,707.1,713.4,658,726z"
        fill="#3e8dc8"></path>
      <path
        d="M971.8,627.6c0.8,10.9,0.9,22.6,1.4,33.8c17.1-50.8,26.8-104.9,26.8-161.4c0-122.2-44.2-234.1-117.3-321.1   c-14.3-11.3-29.1-21.5-44.3-30.4c-48-28.3-100.2-45.7-156.9-50.5c-40.7-3.5-77.8,0.1-107.1,5.5c49.3,2.9,117,16.4,183.1,60   c5.3,3.5,10.4,7.5,15.6,11.3c4.9,3.6,9.9,7,14.8,10.9c24.3,19.9,45.6,43.8,65.3,70c3.4,4.5,7.2,8.7,10.5,13.5   C924.1,356.8,960.4,476.5,971.8,627.6"
        fill="#3e8dc8"></path>
      <path
        d="M714,545.2c-10.4-20.9-23.3-43.3-43.7-43.3c-16.4,0-25.4,10.6-28.3,14.9c-3-4.2-12-14.9-28.4-14.9   c-20.3,0-32.7,21.4-43.7,43.3c-10.1,20.2-23.6,22.3-23.7,22.3l-2.7,0.4l1.9,1.9c0.2,0.1,14.5,14.1,24.5,29.8l2.2,3.5   c14.2,22.3,18.5,29,69.8,29h0.1c51.2,0,55.5-6.7,69.6-28.9l2.3-3.6c10.1-15.7,24.5-29.7,24.6-29.8l1.9-1.9l-2.7-0.4   C737.8,567.5,724.2,565.4,714,545.2z M613.6,504.5c18.5,0,27.1,15.1,27.2,15.3l0.5,0.7l-0.5-0.6   C640.7,519.6,632.1,504.5,613.6,504.5c-4.7,0-9,1.3-12.9,3.6C604.6,505.8,608.9,504.5,613.6,504.5z M639.4,545.8   c-0.6-0.3-2.2-1.1-4.4-1.8C637.1,544.7,638.8,545.4,639.4,545.8z M620.5,544.4c11.6,0,17.7,3.7,17.8,3.8l2.8,0.2l0.3-0.2   c0.1,0,5.9-3.7,17.5-3.7c8.8,0,25.4,10.8,33.5,17.1c-1.5,0-3.5-0.2-6.6-0.8l-0.6-0.1l-0.6,0.3c-2.8,1.3-5.3,2.3-11.6,0.2l-2.6-0.8   v1.9c-2.2,0.9-10.3,2-15.3,2c-5,0-12.8-1.6-12.9-1.6l-0.4,0l-0.4,0c-0.1,0-8.4,1.6-13.4,1.6s-13.1-1.1-15.2-2v-1.9l-2.6,0.8   c-6.3,2-8.8,1.2-11.7-0.2l-0.6-0.3l-0.6,0.1c-3.9,0.7-6.7,0.5-8.9,0h0C596.8,554.3,612.1,544.4,620.5,544.4z M582.7,562.8l2.5-3.1   l0,0L582.7,562.8c0.5,0.4,1.4,0.4,2.1,0.7c3.1,1.4,7.4,2,12.5,1.1c3,1.6,6.3,2.5,13,0.4c4.5,2.9,17.5,3,17.7,3   c4.8,0,12-1.3,13.8-1.6c1.7,0.3,8.5,1.6,13.3,1.6c0.2,0,13.3-0.1,17.8-3c6.4,1.9,9.8,1.2,12.9-0.4c4.6,1,7.6,1,10.1-0.2   c0.3,0.2,1.2,1,1.3,1.1c0.1,0.5-0.6,2.4-2.9,5.1c-3.6,4.2-18.1,17.7-53.9,17.7H639c-35.9,0-50.3-13.6-53.8-17.7   c-2.4-2.7-3-4.5-3-4.9c0.2-0.3,1.6-1.5,2.6-2.2C584.1,563.2,583.2,563.2,582.7,562.8z M612,600.4c-1.3,0.3-1,4.9-3.2,4.2   c-2.3-0.7,0-6.2,1.6-5.9l3,1.3C613.3,600,613.3,600,612,600.4z M620.5,602.3c-1.3,2.6-1.6,3.9-4,3.6c-2.2-0.3,1.9-6.8,3.3-6.2   C619.8,599.7,621.8,599.7,620.5,602.3z M633.3,603.6c-2.4,1.3-4.9,6.8-5.6,3.9c-0.7-2.9,3.6-7.1,5.9-6.8   C633.6,600.7,635.5,602.3,633.3,603.6z M640.3,590.9h-1.3c-32,0-49.2-10.6-56.1-18.8c6.8,8.1,24.1,18.7,56,18.7L640.3,590.9   c36.4,0,53.9-13.8,58.4-22c1.1-2.1,1.3-3.5,0.7-4.6c-1.5-2.3-16.4-13.8-29.1-19.4c12.7,5.6,27.7,17.1,29.1,19.4   c0.6,1,0.4,2.5-0.7,4.6C694.2,577.1,676.8,590.9,640.3,590.9z M651.6,611.2c0,0-0.6-1.3-2-5.3c-1.3-3.9,2.6-3.3,3.9-2.3   C654.8,604.6,653.8,611.5,651.6,611.2z M642.1,629.5L642.1,629.5c8.5,0,15.6-0.2,21.7-0.6C657.7,629.3,650.6,629.5,642.1,629.5z    M672.8,609.2c0.3-2.2-4.2-6.8-6.8-8.5c0,0,1.3-1.3,4-1.7c2.6-0.3,4.9-1.3,6.5,3.6C678,607.5,672.5,611.5,672.8,609.2z    M711.7,598.2l-2.3,3.6c-9.6,15-14.3,22.5-32.6,25.7c18.2-3.2,23-10.7,32.5-25.7L711.7,598.2c8.3-12.8,19.3-24.4,23.4-28.7   c-4.6-1.5-15.1-6.5-23.4-23.2c-10.1-20.2-22.4-41.9-41.3-41.9c-9.8,0-16.7,4.2-21.1,8.2c4.4-4,11.3-8.2,21.1-8.2   c18.9,0,31.3,21.6,41.3,41.9c8.4,16.6,18.8,21.7,23.5,23.1C731,573.7,720,585.3,711.7,598.2z"
        fill="#3e8dc8"></path>
      <path
        d="M568.4,341.9c3.9-1.3,6.3-2.2,7.1-4.3c0.8-2.1-0.2-4.7-2.3-8.4l-1.2-2.3c-4.9-9.1-10-18.4-21.8-27.4   c-13.5-10.3-22.4-13.7-30.2-12.4c-0.6,0.1-1,0.5-1.1,1.1c-0.2,0.5,0.1,1.1,0.6,1.4c6.5,4.1,23.9,15.5,26.7,19.2   c0.5,0.7,1,1.6,0.9,2.2c-0.5,1.5-4.7,2.7-9.2,4.1l-0.7,0.2c-3.5,1.1-11.1,1.8-20.4,1.8c-14.4,0-30.3-1.6-43.3-4.4   c-6.9-1.9-10.3-3.1-12.4-3.9c-1.6-0.5-2.4-0.9-3.3-0.9c-0.6,0-1.2,0.2-1.8,0.3c-2,0.7-3.3,3.4-4.8,6.2c-0.9,1.8-1.8,3.6-2.8,4.7   c-1.2,1.4-2.2,2.8-1.9,4.5c0.4,2,2.4,3.7,7.5,6.8c10.8,6.2,29,14.3,54.6,17.6c7.5,1,14.6,1.5,21,1.5c12.9,0,23.7-1.9,33.7-5.9   C565.3,343.1,567,342.5,568.4,341.9z M516.7,320c-14.6,0-30.6-1.6-44-4.5c-7.1-1.9-10.6-3.2-12.7-3.9c-1.3-0.4-1.9-0.7-2.3-0.7   c0.4,0,1.1,0.3,2.4,0.7c2.1,0.8,5.6,2,12.7,3.9C486.1,318.4,502.1,320,516.7,320z M524.6,289.7L524.6,289.7   c6.2,0.5,13.5,4.2,23.9,12.1c11.4,8.6,16.3,17.7,21.1,26.5l1.2,2.3c1.2,2.2,2.6,4.9,2.1,6c0.4-1.1-0.9-3.8-2.1-6l-1.2-2.3   c-4.8-8.8-9.7-17.9-21.1-26.5C538.1,293.9,530.8,290.2,524.6,289.7z M529.7,346.9L529.7,346.9c12.6,0,23-1.8,32.6-5.7   c2-0.8,3.7-1.4,5.2-1.9c0.6-0.2,1.1-0.4,1.6-0.6c-0.5,0.2-1,0.4-1.6,0.6c-1.5,0.5-3.2,1.1-5.2,1.9   C552.6,345.1,542.3,346.9,529.7,346.9z"
        fill="#3e8dc8"></path>
      <path
        d="M638.3,475.4c23.2,0,29.4-19.3,29.4-29.5h-11.8c0,1.8-0.5,17.7-17.6,17.7c-17.7,0-20.4-14-20.6-15.6l-5.8,0.9   l-5.8,0.8C607.2,458.6,615.6,475.4,638.3,475.4z"
        fill="#3e8dc8"></path>
      <path
        d="M603.9,22.9c-49.2-0.9-96.4,11-136.2,36.1c-41.8,26.4-68.1,63.2-73.1,102c12.5,1.3,37.7,4.6,70.3,11.7h0   c12.8,2.8,26.8,6.3,41.5,10.4h0c93.5,26.3,220.1,81.8,299.8,198.5c11.2,16.3,21,33.4,29.7,51.2h0c3.7,7.4,6.3,15.4,9.6,23.1   c43.4,102.6,49.2,227.2,16.7,372.3l0,0c-1.6,7.3-2.8,14.3-4.6,21.7c42-42.9,75.9-93.2,100.1-148.8c-0.2-9.1-0.8-17.8-1.2-26.7   c-6.5-159-38.4-285.6-95.6-377.8c-3.4-5.5-6.7-11.1-10.2-16.3h0c-21.5-31.4-45.9-58.9-73.7-81.6c-10.8-8.8-21.7-16.3-32.7-23.3h0   c-6.2-4-12.3-7.8-18.5-11.2l0,0c-111-61.1-221.2-41.2-222.4-41c-4.3,0.8-8.5-1.8-9.8-5.8c-1.3-4.2,0.7-8.6,4.7-10.4   c3.2-1.5,80.3-35.2,183.8-26.4c31.2,2.6,66.9,10.1,104.4,24.3h0c13.9,5.3,28,11.7,42.4,19.2C785.2,86,735,55.4,679.9,34   C654.5,26.7,629.1,23.2,603.9,22.9"
        fill="#3e8dc8"></path>
    </g>
  </g>
  <g id="SvgjsG1417" featurekey="SbCDzn-0"
     transform="matrix(1.8384063174757526,0,0,1.8384063174757526,106.05854919074244,5.30047491670776)" fill="#3e8dc8">
    <path
      d="M9.96 6.14 l3.12 0 l0 13.86 l-3.12 0 l0 -5.88 l-5.24 0 l0 5.88 l-3.12 0 l0 -13.86 l3.12 0 l0 5.3 l5.24 0 l0 -5.3 z M25.56 20 q-0.22 -0.72 -0.49 -1.48 t-0.53 -1.52 l-5.4 0 q-0.26 0.76 -0.53 1.52 t-0.49 1.48 l-3.24 0 q0.78 -2.24 1.48 -4.14 t1.37 -3.58 t1.32 -3.19 t1.35 -2.95 l2.98 0 q0.68 1.44 1.34 2.95 t1.33 3.19 t1.37 3.58 t1.48 4.14 l-3.34 0 z M21.82 9.28 q-0.1 0.3 -0.3 0.82 t-0.46 1.2 t-0.57 1.5 t-0.63 1.72 l3.94 0 q-0.32 -0.9 -0.62 -1.72 t-0.57 -1.5 t-0.47 -1.2 t-0.32 -0.82 z M30.7 6.14 l3.12 0 l0 13.86 l-3.12 0 l0 -13.86 z M41.08 5.98 q3.12 0 4.78 1.11 t1.66 3.45 q0 1.46 -0.67 2.37 t-1.93 1.43 q0.42 0.52 0.88 1.19 t0.91 1.4 t0.87 1.52 t0.78 1.55 l-3.5 0 q-0.38 -0.68 -0.77 -1.38 t-0.8 -1.36 t-0.81 -1.25 t-0.8 -1.07 l-1.54 0 l0 5.06 l-3.12 0 l0 -13.66 q1.02 -0.2 2.11 -0.28 t1.95 -0.08 z M41.26 8.64 q-0.34 0 -0.61 0.02 t-0.51 0.04 l0 3.76 l0.88 0 q1.76 0 2.52 -0.44 t0.76 -1.5 q0 -1.02 -0.77 -1.45 t-2.27 -0.43 z M54.04 6.14 q0.36 0.66 0.83 1.63 t0.98 2.1 t1.01 2.31 t0.94 2.22 q0.44 -1.04 0.94 -2.22 t1.01 -2.31 t0.98 -2.1 t0.83 -1.63 l2.84 0 q0.2 1.38 0.37 3.09 t0.3 3.56 t0.24 3.71 t0.19 3.5 l-3.04 0 q-0.06 -2.02 -0.16 -4.4 t-0.3 -4.8 q-0.36 0.84 -0.8 1.86 t-0.87 2.04 t-0.83 1.95 t-0.68 1.59 l-2.18 0 q-0.28 -0.66 -0.68 -1.59 t-0.83 -1.95 t-0.87 -2.04 t-0.8 -1.86 q-0.2 2.42 -0.3 4.8 t-0.16 4.4 l-3.04 0 q0.08 -1.64 0.19 -3.5 t0.24 -3.71 t0.3 -3.56 t0.37 -3.09 l2.98 0 z M68.3 6.14 l3.12 0 l0 13.86 l-3.12 0 l0 -13.86 z M83.92 20 q-1.34 -2.38 -2.9 -4.7 t-3.32 -4.38 l0 9.08 l-3.08 0 l0 -13.86 l2.54 0 q0.66 0.66 1.46 1.62 t1.63 2.05 t1.65 2.26 t1.54 2.25 l0 -8.18 l3.1 0 l0 13.86 l-2.62 0 z M99.02 20 q-0.22 -0.72 -0.49 -1.48 t-0.53 -1.52 l-5.4 0 q-0.26 0.76 -0.53 1.52 t-0.49 1.48 l-3.24 0 q0.78 -2.24 1.48 -4.14 t1.37 -3.58 t1.32 -3.19 t1.35 -2.95 l2.98 0 q0.68 1.44 1.34 2.95 t1.33 3.19 t1.37 3.58 t1.48 4.14 l-3.34 0 z M95.28 9.28 q-0.1 0.3 -0.3 0.82 t-0.46 1.2 t-0.57 1.5 t-0.63 1.72 l3.94 0 q-0.32 -0.9 -0.62 -1.72 t-0.57 -1.5 t-0.47 -1.2 t-0.32 -0.82 z M114.44 6.14 l0 2.66 l-4.18 0 l0 11.2 l-3.12 0 l0 -11.2 l-4.18 0 l0 -2.66 l11.48 0 z M119.06 13.06 q0 1.02 0.25 1.84 t0.72 1.41 t1.15 0.91 t1.56 0.32 q0.86 0 1.55 -0.32 t1.16 -0.91 t0.72 -1.41 t0.25 -1.84 t-0.25 -1.85 t-0.72 -1.42 t-1.16 -0.91 t-1.55 -0.32 q-0.88 0 -1.56 0.33 t-1.15 0.92 t-0.72 1.42 t-0.25 1.83 z M129.64 13.06 q0 1.78 -0.53 3.13 t-1.45 2.26 t-2.19 1.37 t-2.73 0.46 q-1.42 0 -2.68 -0.46 t-2.2 -1.37 t-1.48 -2.26 t-0.54 -3.13 t0.56 -3.13 t1.51 -2.27 t2.2 -1.38 t2.63 -0.46 q1.42 0 2.68 0.46 t2.2 1.38 t1.48 2.27 t0.54 3.13 z M136.3 5.98 q3.12 0 4.78 1.11 t1.66 3.45 q0 1.46 -0.67 2.37 t-1.93 1.43 q0.42 0.52 0.88 1.19 t0.91 1.4 t0.87 1.52 t0.78 1.55 l-3.5 0 q-0.38 -0.68 -0.77 -1.38 t-0.8 -1.36 t-0.81 -1.25 t-0.8 -1.07 l-1.54 0 l0 5.06 l-3.12 0 l0 -13.66 q1.02 -0.2 2.11 -0.28 t1.95 -0.08 z M136.48 8.64 q-0.34 0 -0.61 0.02 t-0.51 0.04 l0 3.76 l0.88 0 q1.76 0 2.52 -0.44 t0.76 -1.5 q0 -1.02 -0.77 -1.45 t-2.27 -0.43 z"></path>
  </g>
  <g id="SvgjsG1418" featurekey="m0CQaI-0"
     transform="matrix(0.6520533527658707,0,0,0.6520533527658707,108.41313948339536,59.43978866902449)" fill="#3e8dc8">
    <path
      d="M13.98 15.84 c-0.504688 1.301542 -1.331328 2.3515 -2.47998 3.14996 c-1.160468 0.80666 -2.4338 1.21 -3.82 1.21 c-1.884454 0 -3.49112 -0.69334 -4.82 -2.08 c-1.30666 -1.363476 -1.96 -2.99682 -1.96 -4.9 c0 -0.94666 0.17334 -1.84332 0.52 -2.68998 s0.82666 -1.59 1.44 -2.23 c1.328886 -1.38666 2.93554 -2.08 4.82 -2.08 c1.39205 0 2.65872 0.39666 3.8 1.19 c1.141426 0.793438 1.968086 1.836778 2.48 3.13002 l-1.54 0 c-0.735762 -1.348886 -1.832422 -2.23888 -3.29 -2.67 c-0.47334 -0.14 -1.02334 -0.21 -1.65 -0.21 s-1.26666 0.15 -1.92 0.45 s-1.22334 0.70334 -1.71 1.21 c-1.03334 1.0758 -1.55 2.3758 -1.55 3.9 c0 1.51086 0.51666 2.8042 1.55 3.88 c1.062988 1.10666 2.33964 1.66 3.83 1.66 c1.01334 0 1.94334 -0.26666 2.79 -0.8 s1.50332 -1.24 1.96998 -2.12 l1.54 0 z M26.876 20 l-1.4 0 l0 -13.6 l1.4 0 l0 6.12 l6.18 0 l0 -6.12 l1.4 0 l0 13.6 l-1.4 0 l0 -6.08 l-6.18 0 l0 6.08 z M58.832 13.16 c0 -1.53334 -0.54666 -2.84668 -1.64 -3.94002 s-2.41334 -1.64 -3.96 -1.64 c-1.53334 0 -2.84668 0.54666 -3.94002 1.64 s-1.64 2.40668 -1.64 3.94002 c0 1.54666 0.54666 2.86666 1.64 3.96 s2.40668 1.64 3.94002 1.64 c1.54666 0 2.86666 -0.54666 3.96 -1.64 s1.64 -2.41334 1.64 -3.96 z M60.232 13.16 c0 0.96 -0.18334 1.86666 -0.55 2.72 s-0.86666 1.59668 -1.5 2.23002 s-1.37668 1.13334 -2.23002 1.5 s-1.76 0.55 -2.72 0.55 s-1.86334 -0.18334 -2.71 -0.55 s-1.58666 -0.86666 -2.22 -1.5 s-1.13334 -1.37668 -1.5 -2.23002 s-0.55 -1.76 -0.55 -2.72 s0.18334 -1.86666 0.55 -2.72 s0.86666 -1.59334 1.5 -2.22 s1.37334 -1.12332 2.22 -1.48998 s1.75 -0.55 2.71 -0.55 s1.86666 0.18334 2.72 0.55 s1.59668 0.86332 2.23002 1.48998 s1.13334 1.36666 1.5 2.22 s0.55 1.76 0.55 2.72 z M84.008 13.16 c0 -1.53334 -0.54666 -2.84668 -1.64 -3.94002 s-2.41334 -1.64 -3.96 -1.64 c-1.53334 0 -2.84668 0.54666 -3.94002 1.64 s-1.64 2.40668 -1.64 3.94002 c0 1.54666 0.54666 2.86666 1.64 3.96 s2.40668 1.64 3.94002 1.64 c1.54666 0 2.86666 -0.54666 3.96 -1.64 s1.64 -2.41334 1.64 -3.96 z M85.408 13.16 c0 0.96 -0.18334 1.86666 -0.55 2.72 s-0.86666 1.59668 -1.5 2.23002 s-1.37668 1.13334 -2.23002 1.5 s-1.76 0.55 -2.72 0.55 s-1.86334 -0.18334 -2.71 -0.55 s-1.58666 -0.86666 -2.22 -1.5 s-1.13334 -1.37668 -1.5 -2.23002 s-0.55 -1.76 -0.55 -2.72 s0.18334 -1.86666 0.55 -2.72 s0.86666 -1.59334 1.5 -2.22 s1.37334 -1.12332 2.22 -1.48998 s1.75 -0.55 2.71 -0.55 s1.86666 0.18334 2.72 0.55 s1.59668 0.86332 2.23002 1.48998 s1.13334 1.36666 1.5 2.22 s0.55 1.76 0.55 2.72 z M100.9818 13.58526 c-2.77408 -0.643184 -4.1605 -1.832988 -4.15924 -3.5694 c0.000938 -1.277246 0.448066 -2.23254 1.341406 -2.86588 s1.9433 -0.95 3.1499 -0.95 c2.64406 0 4.21458 0.98666 4.71158 2.96 l-1.514336 0 c-0.271426 -1.17334 -1.337168 -1.76 -3.19722 -1.76 c-1.313262 0 -2.2308 0.38955 -2.7526 1.168652 c-0.198203 0.287558 -0.296328 0.653964 -0.294376 1.0992 c-0.003633 0.83254 0.44955 1.477558 1.359532 1.935058 c0.428124 0.227208 1.334746 0.520196 2.71986 0.878964 s2.39 0.759122 3.01462 1.201074 c0.868692 0.611386 1.304024 1.47373 1.305976 2.58706 c-0.001953 1.36668 -0.543008 2.40054 -1.623164 3.10158 c-0.906504 0.592286 -2.02708 0.888438 -3.3617 0.888438 c-3.01204 0 -4.75804 -1.14666 -5.23804 -3.44 l1.655098 0 c0.256602 1.44 1.45129 2.16 3.58404 2.16 c1.520566 0 2.58332 -0.422774 3.18826 -1.26832 c0.235058 -0.327792 0.352598 -0.77502 0.352598 -1.34168 s-0.218984 -1.027226 -0.656954 -1.3817 c-0.62871 -0.51293 -1.82379 -0.980606 -3.58526 -1.403046 z M126.16 20 l-8.08 0 l0 -13.6 l8.08 0 l0 1.3 l-6.68 0 l0 4.84 l6.48 0 l0 1.32 l-6.48 0 l0 4.84 l6.68 0 l0 1.3 z M158.612 13.59952 l0 6.40048 l-1.4 0 l0 -6.39712 l-5.16 -7.20288 l1.8 0 l4.06 5.82 l4.06 -5.82 l1.78 0 z M185.128 13.16 c0 -1.53334 -0.54666 -2.84668 -1.64 -3.94002 s-2.41334 -1.64 -3.96 -1.64 c-1.53334 0 -2.84668 0.54666 -3.94002 1.64 s-1.64 2.40668 -1.64 3.94002 c0 1.54666 0.54666 2.86666 1.64 3.96 s2.40668 1.64 3.94002 1.64 c1.54666 0 2.86666 -0.54666 3.96 -1.64 s1.64 -2.41334 1.64 -3.96 z M186.528 13.16 c0 0.96 -0.18334 1.86666 -0.55 2.72 s-0.86666 1.59668 -1.5 2.23002 s-1.37668 1.13334 -2.23002 1.5 s-1.76 0.55 -2.72 0.55 s-1.86334 -0.18334 -2.71 -0.55 s-1.58666 -0.86666 -2.22 -1.5 s-1.13334 -1.37668 -1.5 -2.23002 s-0.55 -1.76 -0.55 -2.72 s0.18334 -1.86666 0.55 -2.72 s0.86666 -1.59334 1.5 -2.22 s1.37334 -1.12332 2.22 -1.48998 s1.75 -0.55 2.71 -0.55 s1.86666 0.18334 2.72 0.55 s1.59668 0.86332 2.23002 1.48998 s1.13334 1.36666 1.5 2.22 s0.55 1.76 0.55 2.72 z M208.164 15.5 c0 1.47295 -0.48002 2.63294 -1.44002 3.48 c-0.90666 0.8 -2.11332 1.2 -3.61998 1.2 c-1.52 0 -2.73334 -0.4 -3.64 -1.2 c-0.96 -0.84705 -1.44 -2.00706 -1.44 -3.48 l0 -9.1 l1.4 0 l0 9.3 c0 1.021954 0.37 1.808614 1.11 2.35998 c0.644218 0.48 1.500878 0.72 2.57 0.72 c1.660684 0 2.78068 -0.56 3.36 -1.68 c0.2 -0.38666 0.3 -0.85332 0.3 -1.39998 l0 -9.3 l1.4 0 l0 9.1 z M221.66 13.28 l3.16002 0 c0.788066 0 1.434726 -0.26666 1.93998 -0.8 c0.52 -0.548886 0.78 -1.219434 0.78 -2.01166 s-0.24666 -1.445 -0.74 -1.95834 s-1.15334 -0.77 -1.98 -0.77 l-3.16 0 l0 5.54 z M228.94002 10.5 c0 1.190742 -0.42334 2.18074 -1.27 2.97 c-0.741172 0.690918 -1.640098 1.070508 -2.6968 1.13877 l4.1868 5.39124 l-1.88 0 l-3.9873 -5.38 l-1.632696 0 l0 5.38 l-1.4 0 l0 -13.6 l4.36 0 c1.210918 0 2.22758 0.38334 3.05 1.15 c0.84666 0.789258 1.27 1.772598 1.27 2.95 z M256.732 20 l-1.4 0 l0 -13.6 l1.4 0 l0 6.12 l6.18 0 l0 -6.12 l1.4 0 l0 13.6 l-1.4 0 l0 -6.08 l-6.18 0 l0 6.08 z M278.90846 15 l4.94794 0 l-2.46842 -6.26 z M287.348 20 l-1.52 0 l-1.458964 -3.7 l-5.97548 0 l-1.465546 3.7 l-1.52 0 l5.98 -14.54 z M299.844 20 l-1.4 0 l0 -13.6 l1.4 0 l0 13.6 z M313.64 13.28 l3.16002 0 c0.788066 0 1.434726 -0.26666 1.93998 -0.8 c0.52 -0.548886 0.78 -1.219434 0.78 -2.01166 s-0.24666 -1.445 -0.74 -1.95834 s-1.15334 -0.77 -1.98 -0.77 l-3.16 0 l0 5.54 z M320.92002 10.5 c0 1.190742 -0.42334 2.18074 -1.27 2.97 c-0.741172 0.690918 -1.640098 1.070508 -2.6968 1.13877 l4.1868 5.39124 l-1.88 0 l-3.9873 -5.38 l-1.632696 0 l0 5.38 l-1.4 0 l0 -13.6 l4.36 0 c1.210918 0 2.22758 0.38334 3.05 1.15 c0.84666 0.789258 1.27 1.772598 1.27 2.95 z"></path>
  </g>
</svg>
