<svg width="891" height="214" viewBox="0 0 891 214" fill="none" xmlns="http://www.w3.org/2000/svg">
<g clip-path="url(#clip0_1_2)">
<path d="M45.2501 22.8713C45.7212 21.4151 46.3851 20.0017 46.9204 18.5669C39.9819 23.2996 33.7073 28.8889 28.0537 35.0779C28.0966 36.2557 28.0537 37.5192 28.118 38.6756C29.1459 59.3198 34.9708 75.531 45.8925 89.4508C38.5686 66.1512 38.2902 43.8581 45.2501 22.8713Z" fill="#3E8DC8"/>
<path d="M59.0842 40.6458C63.1745 26.2763 70.22 14.7122 76.8159 6.9599C77.8224 5.76066 78.7861 4.64707 79.7712 3.66198C69.8988 6.27462 60.6047 10.2364 52.0815 15.376C51.5461 16.6181 51.1178 17.8816 50.6252 19.1237C41.1384 43.4512 41.5881 69.6204 52.3813 97.2459C52.4241 97.3744 52.3384 97.4814 52.3599 97.6099C52.4027 97.8455 52.4027 98.0382 52.3599 98.2738C52.2956 98.5093 52.2314 98.6807 52.1029 98.8948C52.0172 99.0019 52.0386 99.1304 51.953 99.2375C51.8459 99.3231 51.7174 99.3017 51.6103 99.3874C51.5033 99.4516 51.4604 99.6015 51.3534 99.6443C51.1392 99.73 50.9036 99.7728 50.6895 99.7728C50.2398 99.7728 49.8543 99.5587 49.5117 99.2589C49.4688 99.216 49.4046 99.2375 49.3617 99.1946C34.4997 83.8186 26.5119 66.1083 24.6488 42.873C24.5417 41.6309 24.5203 40.3246 24.456 39.0397C21.6292 42.4661 19.1022 46.1281 16.7252 49.8971C16.8537 51.2677 16.8537 52.7882 17.0036 54.1373C21.3508 91.421 38.9969 112.772 54.0302 124.357C66.5152 133.994 79.0645 138.556 85.9601 140.526C52.0386 99.8799 52.4669 63.9454 59.0842 40.6458Z" fill="#3E8DC8"/>
<path d="M15.5045 120.674C9.55113 113.564 5.41802 105.876 2.91246 97.717C2.27001 95.5755 1.71321 93.3911 1.30633 91.164C0.535384 96.3678 7.62939e-06 101.657 7.62939e-06 107.075C7.62939e-06 114.442 0.792365 121.638 2.20576 128.598C3.31934 129.947 4.43293 131.274 5.61076 132.516C31.8014 160.57 72.3401 164.939 72.8969 164.982C73.9034 165.067 74.6315 165.967 74.5459 166.973C74.4602 167.916 73.6679 168.622 72.7256 168.622C72.6614 168.622 72.6185 168.622 72.5543 168.622C72.0189 168.579 34.7781 164.639 7.73085 139.862C6.40311 138.641 5.18246 137.292 3.91897 135.964C5.56793 141.961 7.73085 147.764 10.3649 153.289C12.1209 154.981 13.8984 156.587 15.6758 158.086C36.5127 175.711 58.0777 181.086 74.8885 181.793C99.8157 182.82 121.081 174.233 128.983 169.586C106.561 167.787 43.9652 154.681 15.5045 120.674Z" fill="#3E8DC8"/>
<path d="M171.106 148.149C166.074 157.851 151.233 181.6 121.488 193.121C99.8799 201.494 75.1241 201.494 47.6057 193.357C45.2072 192.65 42.7659 191.772 40.3246 190.937C53.4949 201.387 69.2563 208.776 86.7311 212.138C90.2645 211.795 93.6267 211.41 96.7105 210.896C129.625 205.542 138.213 191.751 138.341 191.558C138.855 190.68 139.948 190.401 140.847 190.894C141.725 191.408 142.025 192.5 141.532 193.378C141.125 194.085 134.722 204.642 112.108 211.303C108.767 212.266 104.998 213.144 100.929 213.915C102.964 214.022 105.02 214.151 107.097 214.151C112.815 214.151 118.511 213.701 124.079 212.802C132.559 211.452 140.633 209.054 148.257 205.906C149.413 204.6 150.462 203.229 151.533 201.88C157.486 194.363 162.262 186.161 165.539 178.537C170.592 166.695 172.563 155.581 171.106 148.149Z" fill="#3E8DC8"/>
<path d="M180.315 105.598C179.737 103.842 178.966 102.171 178.28 100.48C175.925 94.6118 173.184 88.9796 169.65 83.84C148.985 53.6233 113.007 43.1728 94.3762 39.6821C87.2236 38.333 82.5337 37.9903 82.3838 37.9689C82.0412 37.9475 81.8056 37.7334 81.5486 37.562H81.5272C81.0132 37.2194 80.6278 36.7269 80.6492 36.063C81.1846 25.8908 87.5877 16.2326 98.1881 9.55112C103.178 6.40311 108.724 4.24019 114.528 2.84821C117.462 2.16292 120.417 1.64896 123.458 1.41339C118.126 0.556792 112.665 0 107.075 0C100.265 0 93.6053 0.706698 87.1594 1.92736C86.0029 2.76254 84.6966 3.89754 83.2832 5.28952C76.5589 11.8425 67.5431 24.2419 62.5963 41.6523C56.0218 64.8877 55.8291 101.229 92.4275 142.41C92.9414 142.988 93.0485 143.824 92.663 144.509C92.3418 145.109 91.7208 145.473 91.0569 145.473C90.9712 145.473 90.8642 145.473 90.7785 145.451C89.9861 145.323 71.1623 142.153 51.953 127.377C36.9196 115.834 19.5091 94.9544 14.0911 59.3626C13.877 57.992 13.5772 56.7285 13.4058 55.3366C9.31556 62.7033 6.16755 70.6269 3.89755 78.9146C3.87614 81.827 4.00463 84.6752 4.36868 87.4592C5.86774 98.6807 10.5362 109.003 18.3313 118.34C50.4539 156.716 124.422 166.245 133.801 166.245C134.358 166.245 134.894 166.502 135.258 166.952C135.6 167.38 135.729 167.98 135.6 168.515C134.701 172.134 116.841 181.386 94.7831 184.512C89.3223 185.283 84.0542 185.647 79.0002 185.647C55.4436 185.647 36.32 177.745 21.0724 166.823C19.0808 165.41 17.1535 163.954 15.3118 162.433C20.173 170.507 26.0622 177.895 32.8507 184.405C34.8852 185.219 36.8553 185.819 38.847 186.525C69.5133 197.554 96.839 198.753 120.181 189.695C155.837 175.882 169.607 142.86 169.736 142.539C170.014 141.875 170.635 141.425 171.363 141.382C172.092 141.361 172.755 141.746 173.077 142.41C177.081 150.484 175.539 164.532 168.901 179.994C166.374 185.904 162.904 192.157 158.771 198.197C157.808 199.631 156.823 201.045 155.773 202.458C164.061 198.261 171.685 193.035 178.516 186.954C178.923 185.497 179.394 183.977 179.758 182.542C187.253 152.775 187.446 127.034 180.315 105.598ZM140.911 155.473C123.565 159.971 110.673 148.771 90.5001 122.987C71.5478 98.7663 75.8094 66.3439 76.3876 48.0983C88.6156 49.3403 105.962 53.3664 116.027 59.7695C130.632 69.0636 140.783 80.7991 148.042 96.7319C154.595 111.166 160.87 123.608 168.858 128.919C162.048 142.239 151.426 152.775 140.911 155.473Z" fill="#3E8DC8"/>
<path d="M208.112 134.401C208.283 136.735 208.304 139.241 208.412 141.639C212.073 130.76 214.151 119.175 214.151 107.075C214.151 80.9062 204.685 56.9427 189.031 38.3116C185.969 35.8917 182.799 33.7073 179.544 31.8014C169.265 25.7409 158.086 22.0147 145.944 20.9868C137.228 20.2372 129.283 21.0082 123.008 22.1646C133.566 22.7856 148.064 25.6767 162.219 35.0136C163.354 35.7632 164.446 36.6198 165.56 37.4336C166.609 38.2045 167.68 38.9326 168.729 39.7678C173.933 44.0294 178.495 49.1476 182.713 54.7583C183.442 55.722 184.255 56.6215 184.962 57.6494C197.897 76.409 205.67 102.043 208.112 134.401Z" fill="#3E8DC8"/>
<path d="M152.904 116.755C150.676 112.279 147.914 107.482 143.545 107.482C140.033 107.482 138.106 109.752 137.485 110.673C136.842 109.774 134.915 107.482 131.403 107.482C127.056 107.482 124.4 112.065 122.045 116.755C119.882 121.081 116.991 121.531 116.969 121.531L116.391 121.616L116.798 122.023C116.841 122.045 119.903 125.043 122.045 128.405L122.516 129.154C125.557 133.93 126.477 135.365 137.463 135.365H137.485C148.449 135.365 149.37 133.93 152.39 129.176L152.882 128.405C155.045 125.043 158.129 122.045 158.15 122.023L158.557 121.616L157.979 121.531C158 121.531 155.088 121.081 152.904 116.755ZM131.403 108.039C135.365 108.039 137.206 111.273 137.228 111.316L137.335 111.465L137.228 111.337C137.206 111.273 135.365 108.039 131.403 108.039ZM136.928 116.883C136.8 116.819 136.457 116.648 135.986 116.498C136.435 116.648 136.8 116.798 136.928 116.883ZM132.881 116.584C135.365 116.584 136.671 117.376 136.692 117.397L137.292 117.44L137.356 117.397C137.378 117.397 138.62 116.605 141.104 116.605C142.988 116.605 146.543 118.918 148.278 120.267C147.957 120.267 147.528 120.224 146.865 120.096L146.736 120.074L146.608 120.139C146.008 120.417 145.473 120.631 144.123 120.181L143.567 120.01V120.417C143.096 120.61 141.361 120.845 140.29 120.845C139.219 120.845 137.549 120.503 137.528 120.503H137.442H137.356C137.335 120.503 135.557 120.845 134.487 120.845C133.416 120.845 131.681 120.61 131.232 120.417V120.01L130.675 120.181C129.326 120.61 128.79 120.438 128.169 120.139L128.041 120.074L127.912 120.096C127.077 120.246 126.477 120.203 126.006 120.096C127.805 118.704 131.082 116.584 132.881 116.584ZM125.235 120.674C125.899 120.974 126.82 121.102 127.912 120.91C128.555 121.252 129.261 121.445 130.696 120.995C131.66 121.616 134.444 121.638 134.487 121.638C135.515 121.638 137.056 121.359 137.442 121.295C137.806 121.359 139.262 121.638 140.29 121.638C140.333 121.638 143.138 121.616 144.102 120.995C145.473 121.402 146.201 121.252 146.865 120.91C147.85 121.124 148.492 121.124 149.028 120.867C149.092 120.91 149.284 121.081 149.306 121.102C149.327 121.209 149.177 121.616 148.685 122.194C147.914 123.094 144.809 125.985 137.142 125.985H136.842C129.154 125.985 126.071 123.072 125.321 122.194C124.807 121.616 124.679 121.231 124.679 121.145C124.721 121.081 125.021 120.824 125.235 120.674ZM131.06 128.576C130.782 128.64 130.846 129.625 130.375 129.476C129.882 129.326 130.375 128.148 130.718 128.212L131.36 128.49C131.339 128.49 131.339 128.49 131.06 128.576ZM132.881 128.983C132.602 129.54 132.538 129.818 132.024 129.754C131.553 129.69 132.431 128.298 132.731 128.426C132.731 128.426 133.159 128.426 132.881 128.983ZM135.622 129.261C135.108 129.54 134.572 130.718 134.422 130.097C134.273 129.476 135.193 128.576 135.686 128.64C135.686 128.64 136.093 128.983 135.622 129.261ZM137.121 126.542H136.842C129.99 126.542 126.306 124.272 124.828 122.516C126.285 124.25 129.99 126.52 136.821 126.52L137.121 126.542C144.916 126.542 148.663 123.586 149.627 121.83C149.863 121.381 149.906 121.081 149.777 120.845C149.456 120.353 146.265 117.89 143.545 116.691C146.265 117.89 149.477 120.353 149.777 120.845C149.906 121.059 149.863 121.381 149.627 121.83C148.663 123.586 144.937 126.542 137.121 126.542ZM139.541 130.889C139.541 130.889 139.412 130.611 139.112 129.754C138.834 128.919 139.669 129.047 139.948 129.261C140.226 129.476 140.012 130.953 139.541 130.889ZM144.081 130.461C144.145 129.99 143.181 129.004 142.624 128.64C142.624 128.64 142.903 128.362 143.481 128.276C144.038 128.212 144.53 127.998 144.873 129.047C145.194 130.097 144.016 130.953 144.081 130.461ZM152.411 128.105L151.919 128.876C149.863 132.088 148.856 133.694 144.937 134.38C148.835 133.694 149.863 132.088 151.897 128.876L152.411 128.105C154.189 125.364 156.544 122.88 157.422 121.959C156.437 121.638 154.189 120.567 152.411 116.991C150.248 112.665 147.614 108.018 143.567 108.018C147.614 108.018 150.27 112.643 152.411 116.991C154.21 120.545 156.437 121.638 157.444 121.937C156.544 122.858 154.189 125.342 152.411 128.105Z" fill="#3E8DC8"/>
<path d="M121.723 73.2181C122.558 72.9397 123.072 72.747 123.244 72.2973C123.415 71.8476 123.201 71.2908 122.751 70.4984L122.494 70.0059C121.445 68.0571 120.353 66.0655 117.826 64.1381C114.935 61.9324 113.029 61.2043 111.358 61.4827C111.23 61.5041 111.144 61.5898 111.123 61.7182C111.08 61.8253 111.144 61.9538 111.251 62.0181C112.643 62.8961 116.37 65.3374 116.969 66.1297C117.076 66.2797 117.183 66.4724 117.162 66.6009C117.055 66.9221 116.155 67.1791 115.192 67.4789L115.042 67.5217C114.292 67.7573 112.665 67.9072 110.673 67.9072C107.589 67.9072 104.184 67.5646 101.4 66.9649C99.9228 66.5581 99.1946 66.3011 98.7449 66.1297C98.4023 66.0227 98.231 65.937 98.0382 65.937C97.9097 65.937 97.7812 65.9798 97.6528 66.0013C97.2245 66.1512 96.9461 66.7294 96.6248 67.329C96.4321 67.7145 96.2394 68.0999 96.0252 68.3355C95.7682 68.6353 95.5541 68.9351 95.6183 69.2992C95.704 69.7275 96.1323 70.0915 97.2245 70.7554C99.5373 72.0831 103.435 73.8178 108.917 74.5245C110.523 74.7386 112.044 74.8457 113.414 74.8457C116.177 74.8457 118.49 74.4388 120.631 73.5822C121.059 73.4751 121.423 73.3466 121.723 73.2181ZM110.652 68.5282C107.525 68.5282 104.099 68.1856 101.229 67.5646C99.7086 67.1577 98.9591 66.8793 98.5094 66.7294C98.231 66.6437 98.1025 66.5795 98.0168 66.5795C98.1025 66.5795 98.2524 66.6437 98.5308 66.7294C98.9805 66.9007 99.73 67.1577 101.25 67.5646C104.099 68.1856 107.525 68.5282 110.652 68.5282ZM117.462 64.6307C119.903 66.4724 120.952 68.4212 121.98 70.3057L122.237 70.7982C122.494 71.2694 122.794 71.8476 122.687 72.0831C122.773 71.8476 122.494 71.2694 122.237 70.7982L121.98 70.3057C120.952 68.4212 119.903 66.4724 117.462 64.6307ZM113.436 74.2889C116.134 74.2889 118.361 73.9034 120.417 73.0682C118.34 73.9034 116.134 74.2889 113.436 74.2889Z" fill="#3E8DC8"/>
<path d="M136.692 101.807C141.661 101.807 142.988 97.6742 142.988 95.4898H140.461C140.461 95.8753 140.354 99.2803 136.692 99.2803C132.902 99.2803 132.324 96.2822 132.281 95.9395L131.039 96.1323L129.797 96.3036C130.032 98.2095 131.831 101.807 136.692 101.807Z" fill="#3E8DC8"/>
<path d="M129.326 4.90405C118.789 4.71132 108.682 7.25971 100.158 12.6349C91.2068 18.2885 85.5746 26.1692 84.5039 34.4783C87.1808 34.7567 92.5774 35.4634 99.5587 36.9838C102.3 37.5835 105.298 38.333 108.446 39.211C128.469 44.8432 155.581 56.7285 172.648 81.7199C175.047 85.2106 177.146 88.8726 179.009 92.6844C179.801 94.2692 180.358 95.9824 181.064 97.6313C190.359 119.603 191.601 146.286 184.641 177.36C184.298 178.923 184.041 180.422 183.656 182.007C192.65 172.82 199.91 162.048 205.092 150.141C205.049 148.192 204.921 146.329 204.835 144.423C203.443 110.373 196.612 83.2618 184.362 63.5171C183.634 62.3393 182.928 61.14 182.178 60.0265C177.574 53.3021 172.349 47.413 166.395 42.5518C164.082 40.6672 161.748 39.0611 159.392 37.562C158.065 36.7054 156.758 35.8917 155.431 35.1636C131.66 22.0789 108.06 26.3405 107.803 26.3834C106.883 26.5547 105.983 25.9979 105.705 25.1413C105.426 24.2419 105.855 23.2996 106.711 22.9141C107.397 22.5929 123.908 15.376 146.072 17.2606C152.754 17.8173 160.399 19.4235 168.43 22.4644C171.406 23.5994 174.426 24.97 177.51 26.5761C168.151 18.417 157.401 11.864 145.601 7.28113C140.162 5.71783 134.722 4.9683 129.326 4.90405Z" fill="#3E8DC8"/>
<path d="M299.312 39.9222H313.117V101.244H299.312V75.2288H276.129V101.244H262.324V39.9222H276.129V63.3714H299.312V39.9222ZM368.333 101.244C367.684 99.1205 366.961 96.9378 366.165 94.6962C365.369 92.4545 364.587 90.2128 363.82 87.9711H339.928C339.161 90.2128 338.38 92.4545 337.583 94.6962C336.787 96.9378 336.064 99.1205 335.415 101.244H321.08C323.381 94.6372 325.564 88.5315 327.629 82.9273C329.693 77.323 331.714 72.0433 333.69 67.0879C335.666 62.1326 337.613 57.428 339.53 52.9741C341.447 48.5202 343.438 44.1696 345.503 39.9222H358.688C360.693 44.1696 362.67 48.5202 364.616 52.9741C366.563 57.428 368.525 62.1326 370.501 67.0879C372.477 72.0433 374.498 77.323 376.562 82.9273C378.627 88.5315 380.81 94.6372 383.11 101.244H368.333ZM351.786 53.8147C351.491 54.6996 351.048 55.909 350.458 57.4428C349.868 58.9765 349.19 60.7463 348.423 62.752C347.656 64.7578 346.816 66.9699 345.901 69.3886C344.987 71.8073 344.058 74.3439 343.114 76.9986H360.546C359.602 74.3439 358.688 71.8073 357.803 69.3886C356.918 66.9699 356.077 64.7578 355.281 62.752C354.485 60.7463 353.791 58.9765 353.202 57.4428C352.612 55.909 352.14 54.6996 351.786 53.8147ZM391.074 39.9222H404.878V101.244H391.074V39.9222ZM437 39.2143C446.202 39.2143 453.252 40.8513 458.148 44.1253C463.044 47.3994 465.493 52.4874 465.493 59.3895C465.493 63.6959 464.505 67.1912 462.528 69.8753C460.552 72.5594 457.706 74.6684 453.989 76.2022C455.228 77.736 456.526 79.491 457.883 81.4672C459.239 83.4434 460.582 85.5082 461.909 87.6614C463.236 89.8146 464.519 92.0563 465.758 94.3865C466.997 96.7166 468.147 99.0026 469.209 101.244H453.724C452.603 99.2385 451.467 97.2033 450.317 95.1386C449.167 93.0739 447.987 91.0682 446.777 89.1214C445.568 87.1747 444.374 85.3312 443.194 83.5909C442.014 81.8507 440.834 80.2726 439.654 78.8568H432.841V101.244H419.036V40.807C422.045 40.2171 425.157 39.8042 428.372 39.5682C431.587 39.3322 434.463 39.2143 437 39.2143ZM437.796 50.9831C436.793 50.9831 435.893 51.0126 435.097 51.0716C434.301 51.1306 433.549 51.1896 432.841 51.2486V67.8843H436.734C441.925 67.8843 445.642 67.2354 447.884 65.9376C450.125 64.6398 451.246 62.4276 451.246 59.301C451.246 56.2924 450.11 54.154 447.839 52.8856C445.568 51.6173 442.22 50.9831 437.796 50.9831ZM494.34 39.9222C495.402 41.8689 496.626 44.2728 498.012 47.1339C499.398 49.995 500.844 53.0921 502.348 56.4251C503.852 59.7582 505.342 63.165 506.816 66.6455C508.291 70.126 509.678 73.4001 510.975 76.4676C512.273 73.4001 513.66 70.126 515.134 66.6455C516.609 63.165 518.099 59.7582 519.603 56.4251C521.107 53.0921 522.553 49.995 523.939 47.1339C525.325 44.2728 526.549 41.8689 527.611 39.9222H540.176C540.766 43.9926 541.312 48.5497 541.813 53.5935C542.315 58.6373 542.757 63.8876 543.141 69.3444C543.524 74.8011 543.878 80.2726 544.203 85.7589C544.527 91.2451 544.807 96.4069 545.043 101.244H531.593C531.416 95.2861 531.18 88.797 530.885 81.7769C530.59 74.7569 530.148 67.6779 529.558 60.5398C528.496 63.0175 527.316 65.7606 526.018 68.7692C524.721 71.7778 523.437 74.7864 522.169 77.795C520.901 80.8036 519.677 83.6794 518.497 86.4225C517.317 89.1657 516.314 91.5106 515.488 93.4573H505.843C505.017 91.5106 504.014 89.1657 502.835 86.4225C501.655 83.6794 500.431 80.8036 499.162 77.795C497.894 74.7864 496.611 71.7778 495.313 68.7692C494.015 65.7606 492.835 63.0175 491.774 60.5398C491.184 67.6779 490.741 74.7569 490.446 81.7769C490.151 88.797 489.915 95.2861 489.738 101.244H476.288C476.524 96.4069 476.804 91.2451 477.129 85.7589C477.453 80.2726 477.807 74.8011 478.191 69.3444C478.574 63.8876 479.017 58.6373 479.518 53.5935C480.019 48.5497 480.565 43.9926 481.155 39.9222H494.34ZM557.432 39.9222H571.236V101.244H557.432V39.9222ZM626.541 101.244C622.588 94.2242 618.311 87.2927 613.71 80.4496C609.108 73.6065 604.212 67.1469 599.021 61.0708V101.244H585.394V39.9222H596.632C598.578 41.8689 600.732 44.2581 603.091 47.0897C605.451 49.9213 607.855 52.9446 610.303 56.1597C612.751 59.3747 615.185 62.7078 617.603 66.1588C620.022 69.6098 622.293 72.9281 624.417 76.1137V39.9222H638.132V101.244H626.541ZM693.349 101.244C692.7 99.1205 691.977 96.9378 691.181 94.6962C690.385 92.4545 689.603 90.2128 688.836 87.9711H664.944C664.177 90.2128 663.396 92.4545 662.599 94.6962C661.803 96.9378 661.08 99.1205 660.431 101.244H646.096C648.397 94.6372 650.58 88.5315 652.644 82.9273C654.709 77.323 656.73 72.0433 658.706 67.0879C660.682 62.1326 662.629 57.428 664.546 52.9741C666.463 48.5202 668.454 44.1696 670.519 39.9222H683.704C685.709 44.1696 687.686 48.5202 689.632 52.9741C691.579 57.428 693.541 62.1326 695.517 67.0879C697.493 72.0433 699.514 77.323 701.578 82.9273C703.643 88.5315 705.826 94.6372 708.126 101.244H693.349ZM676.802 53.8147C676.507 54.6996 676.064 55.909 675.474 57.4428C674.884 58.9765 674.206 60.7463 673.439 62.752C672.672 64.7578 671.832 66.9699 670.917 69.3886C670.003 71.8073 669.074 74.3439 668.13 76.9986H685.562C684.618 74.3439 683.704 71.8073 682.819 69.3886C681.934 66.9699 681.093 64.7578 680.297 62.752C679.501 60.7463 678.807 58.9765 678.217 57.4428C677.628 55.909 677.156 54.6996 676.802 53.8147ZM761.573 39.9222V51.691H743.079V101.244H729.275V51.691H710.781V39.9222H761.573ZM782.014 70.539C782.014 73.5476 782.382 76.2612 783.12 78.6798C783.857 81.0985 784.919 83.178 786.305 84.9182C787.692 86.6585 789.388 88.0006 791.393 88.9444C793.399 89.8883 795.7 90.3603 798.296 90.3603C800.832 90.3603 803.118 89.8883 805.153 88.9444C807.189 88.0006 808.899 86.6585 810.286 84.9182C811.672 83.178 812.734 81.0985 813.471 78.6798C814.209 76.2612 814.577 73.5476 814.577 70.539C814.577 67.5304 814.209 64.802 813.471 62.3538C812.734 59.9057 811.672 57.8115 810.286 56.0712C808.899 54.3309 807.189 52.9889 805.153 52.045C803.118 51.1011 800.832 50.6292 798.296 50.6292C795.7 50.6292 793.399 51.1159 791.393 52.0892C789.388 53.0626 787.692 54.4194 786.305 56.1597C784.919 57.8999 783.857 59.9942 783.12 62.4423C782.382 64.8905 782.014 67.5894 782.014 70.539ZM828.824 70.539C828.824 75.7892 828.042 80.4054 826.479 84.3873C824.916 88.3693 822.777 91.7023 820.064 94.3865C817.35 97.0706 814.12 99.0911 810.374 100.448C806.628 101.805 802.602 102.483 798.296 102.483C794.107 102.483 790.155 101.805 786.438 100.448C782.722 99.0911 779.477 97.0706 776.704 94.3865C773.932 91.7023 771.749 88.3693 770.156 84.3873C768.564 80.4054 767.767 75.7892 767.767 70.539C767.767 65.2887 768.593 60.6726 770.245 56.6906C771.897 52.7087 774.124 49.3609 776.926 46.6472C779.728 43.9336 782.972 41.8984 786.659 40.5416C790.346 39.1848 794.225 38.5063 798.296 38.5063C802.484 38.5063 806.436 39.1848 810.153 40.5416C813.869 41.8984 817.114 43.9336 819.887 46.6472C822.659 49.3609 824.842 52.7087 826.435 56.6906C828.027 60.6726 828.824 65.2887 828.824 70.539ZM858.29 39.2143C867.493 39.2143 874.543 40.8513 879.439 44.1253C884.335 47.3994 886.783 52.4874 886.783 59.3895C886.783 63.6959 885.795 67.1912 883.819 69.8753C881.843 72.5594 878.996 74.6684 875.28 76.2022C876.519 77.736 877.817 79.491 879.173 81.4672C880.53 83.4434 881.872 85.5082 883.2 87.6614C884.527 89.8146 885.81 92.0563 887.049 94.3865C888.288 96.7166 889.438 99.0026 890.5 101.244H875.014C873.894 99.2385 872.758 97.2033 871.608 95.1386C870.457 93.0739 869.277 91.0682 868.068 89.1214C866.859 87.1747 865.664 85.3312 864.484 83.5909C863.305 81.8507 862.125 80.2726 860.945 78.8568H854.131V101.244H840.327V40.807C843.336 40.2171 846.448 39.8042 849.663 39.5682C852.878 39.3322 855.754 39.2143 858.29 39.2143ZM859.087 50.9831C858.084 50.9831 857.184 51.0126 856.388 51.0716C855.591 51.1306 854.839 51.1896 854.131 51.2486V67.8843H858.025C863.216 67.8843 866.933 67.2354 869.174 65.9376C871.416 64.6398 872.537 62.4276 872.537 59.301C872.537 56.2924 871.401 54.154 869.13 52.8856C866.859 51.6173 863.511 50.9831 859.087 50.9831Z" fill="#3E8DC8"/>
<path d="M282.85 167.908C282.058 169.95 280.761 171.598 278.959 172.851C277.138 174.117 275.139 174.75 272.964 174.75C270.007 174.75 267.486 173.662 265.4 171.486C263.35 169.346 262.324 166.783 262.324 163.796C262.324 162.311 262.596 160.903 263.14 159.575C263.684 158.246 264.438 157.08 265.4 156.075C267.486 153.899 270.007 152.811 272.964 152.811C275.149 152.811 277.136 153.434 278.927 154.679C280.718 155.924 282.016 157.561 282.819 159.591H280.402C279.248 157.474 277.527 156.077 275.239 155.401C274.497 155.181 273.634 155.071 272.65 155.071C271.667 155.071 270.662 155.306 269.637 155.777C268.612 156.248 267.717 156.881 266.954 157.676C265.332 159.364 264.521 161.404 264.521 163.796C264.521 166.167 265.332 168.197 266.954 169.885C268.622 171.622 270.625 172.49 272.964 172.49C274.554 172.49 276.014 172.071 277.342 171.235C278.671 170.398 279.701 169.289 280.434 167.908H282.85ZM303.088 174.436H300.891V153.094H303.088V162.698H312.786V153.094H314.983V174.436H312.786V164.895H303.088V174.436ZM353.235 163.702C353.235 161.296 352.377 159.235 350.661 157.519C348.946 155.803 346.874 154.946 344.447 154.946C342.041 154.946 339.98 155.803 338.264 157.519C336.548 159.235 335.691 161.296 335.691 163.702C335.691 166.129 336.548 168.201 338.264 169.916C339.98 171.632 342.041 172.49 344.447 172.49C346.874 172.49 348.946 171.632 350.661 169.916C352.377 168.201 353.235 166.129 353.235 163.702ZM355.432 163.702C355.432 165.209 355.144 166.631 354.569 167.97C353.993 169.31 353.209 170.476 352.215 171.47C351.221 172.464 350.055 173.248 348.715 173.824C347.376 174.399 345.954 174.687 344.447 174.687C342.941 174.687 341.523 174.399 340.194 173.824C338.866 173.248 337.704 172.464 336.711 171.47C335.717 170.476 334.932 169.31 334.357 167.97C333.781 166.631 333.494 165.209 333.494 163.702C333.494 162.196 333.781 160.773 334.357 159.434C334.932 158.095 335.717 156.933 336.711 155.95C337.704 154.966 338.866 154.187 340.194 153.612C341.523 153.036 342.941 152.749 344.447 152.749C345.954 152.749 347.376 153.036 348.715 153.612C350.055 154.187 351.221 154.966 352.215 155.95C353.209 156.933 353.993 158.095 354.569 159.434C355.144 160.773 355.432 162.196 355.432 163.702ZM392.743 163.702C392.743 161.296 391.885 159.235 390.169 157.519C388.453 155.803 386.382 154.946 383.955 154.946C381.549 154.946 379.488 155.803 377.772 157.519C376.056 159.235 375.198 161.296 375.198 163.702C375.198 166.129 376.056 168.201 377.772 169.916C379.488 171.632 381.549 172.49 383.955 172.49C386.382 172.49 388.453 171.632 390.169 169.916C391.885 168.201 392.743 166.129 392.743 163.702ZM394.94 163.702C394.94 165.209 394.652 166.631 394.077 167.97C393.501 169.31 392.717 170.476 391.723 171.47C390.729 172.464 389.562 173.248 388.223 173.824C386.884 174.399 385.461 174.687 383.955 174.687C382.448 174.687 381.031 174.399 379.702 173.824C378.373 173.248 377.212 172.464 376.218 171.47C375.224 170.476 374.44 169.31 373.864 167.97C373.289 166.631 373.001 165.209 373.001 163.702C373.001 162.196 373.289 160.773 373.864 159.434C374.44 158.095 375.224 156.933 376.218 155.95C377.212 154.966 378.373 154.187 379.702 153.612C381.031 153.036 382.448 152.749 383.955 152.749C385.461 152.749 386.884 153.036 388.223 153.612C389.562 154.187 390.729 154.966 391.723 155.95C392.717 156.933 393.501 158.095 394.077 159.434C394.652 160.773 394.94 162.196 394.94 163.702ZM419.379 164.369C415.026 163.36 412.85 161.493 412.852 158.768C412.854 156.764 413.555 155.265 414.957 154.271C416.359 153.277 418.007 152.78 419.9 152.78C424.049 152.78 426.514 154.328 427.294 157.425H424.917C424.491 155.584 422.819 154.663 419.9 154.663C417.839 154.663 416.399 155.274 415.581 156.497C415.27 156.948 415.116 157.523 415.119 158.222C415.113 159.528 415.824 160.541 417.252 161.259C417.924 161.615 419.347 162.075 421.52 162.638C423.694 163.201 425.271 163.829 426.251 164.523C427.614 165.482 428.297 166.835 428.3 168.582C428.297 170.727 427.448 172.35 425.753 173.45C424.331 174.379 422.572 174.844 420.478 174.844C415.751 174.844 413.011 173.044 412.258 169.446H414.855C415.258 171.705 417.133 172.835 420.48 172.835C422.866 172.835 424.533 172.172 425.483 170.845C425.852 170.33 426.036 169.629 426.036 168.739C426.036 167.85 425.692 167.127 425.005 166.571C424.019 165.766 422.143 165.032 419.379 164.369ZM458.89 174.436H446.211V153.094H458.89V155.134H448.408V162.729H458.576V164.801H448.408V172.396H458.89V174.436ZM509.816 164.392V174.436H507.619V164.397L499.522 153.094H502.346L508.717 162.227L515.089 153.094H517.882L509.816 164.392ZM551.426 163.702C551.426 161.296 550.569 159.235 548.853 157.519C547.137 155.803 545.066 154.946 542.639 154.946C540.232 154.946 538.171 155.803 536.456 157.519C534.74 159.235 533.882 161.296 533.882 163.702C533.882 166.129 534.74 168.201 536.456 169.916C538.171 171.632 540.232 172.49 542.639 172.49C545.066 172.49 547.137 171.632 548.853 169.916C550.569 168.201 551.426 166.129 551.426 163.702ZM553.623 163.702C553.623 165.209 553.336 166.631 552.76 167.97C552.185 169.31 551.4 170.476 550.406 171.47C549.413 172.464 548.246 173.248 546.907 173.824C545.568 174.399 544.145 174.687 542.639 174.687C541.132 174.687 539.714 174.399 538.386 173.824C537.057 173.248 535.896 172.464 534.902 171.47C533.908 170.476 533.124 169.31 532.548 167.97C531.973 166.631 531.685 165.209 531.685 163.702C531.685 162.196 531.973 160.773 532.548 159.434C533.124 158.095 533.908 156.933 534.902 155.95C535.896 154.966 537.057 154.187 538.386 153.612C539.714 153.036 541.132 152.749 542.639 152.749C544.145 152.749 545.568 153.036 546.907 153.612C548.246 154.187 549.413 154.966 550.406 155.95C551.4 156.933 552.185 158.095 552.76 159.434C553.336 160.773 553.623 162.196 553.623 163.702ZM587.576 167.374C587.576 169.686 586.823 171.506 585.316 172.835C583.893 174.091 582 174.718 579.635 174.718C577.25 174.718 575.346 174.091 573.923 172.835C572.417 171.506 571.664 169.686 571.664 167.374V153.094H573.861V167.688C573.861 169.292 574.441 170.526 575.602 171.391C576.613 172.145 577.958 172.521 579.635 172.521C582.242 172.521 583.999 171.642 584.908 169.885C585.222 169.278 585.379 168.546 585.379 167.688V153.094H587.576V167.374ZM608.755 163.89H613.714C614.95 163.89 615.965 163.472 616.758 162.635C617.574 161.774 617.982 160.721 617.982 159.478C617.982 158.235 617.595 157.211 616.821 156.405C616.047 155.599 615.011 155.197 613.714 155.197H608.755V163.89ZM620.179 159.528C620.179 161.396 619.515 162.95 618.186 164.189C617.023 165.273 615.612 165.868 613.954 165.976L620.524 174.436H617.574L611.317 165.993H608.755V174.436H606.558V153.094H613.4C615.3 153.094 616.895 153.695 618.186 154.899C619.515 156.137 620.179 157.68 620.179 159.528ZM663.792 174.436H661.595V153.094H663.792V162.698H673.49V153.094H675.687V174.436H673.49V164.895H663.792V174.436ZM698.592 166.589H706.357L702.484 156.766L698.592 166.589ZM711.836 174.436H709.451L707.162 168.63H697.784L695.485 174.436H693.099L702.484 151.619L711.836 174.436ZM731.446 174.436H729.249V153.094H731.446V174.436ZM753.095 163.89H758.054C759.291 163.89 760.306 163.472 761.099 162.635C761.915 161.774 762.323 160.721 762.323 159.478C762.323 158.235 761.936 157.211 761.161 156.405C760.387 155.599 759.351 155.197 758.054 155.197H753.095V163.89ZM764.52 159.528C764.52 161.396 763.855 162.95 762.527 164.189C761.364 165.273 759.953 165.868 758.295 165.976L764.865 174.436H761.915L755.658 165.993H753.095V174.436H750.898V153.094H757.74C759.641 153.094 761.236 153.695 762.527 154.899C763.855 156.137 764.52 157.68 764.52 159.528Z" fill="#3E8DC8"/>
</g>
<defs>
<clipPath id="clip0_1_2">
<rect width="891" height="214" fill="white"/>
</clipPath>
</defs>
</svg>
